<?xml version="1.0" encoding="UTF-8"?>
<svg id="a" data-name="Ebene 1" xmlns="http://www.w3.org/2000/svg" viewBox="0 0 550 150">
  <rect width="550" height="150" style="fill: #1e293b; stroke-width: 0px;"/>
  <g>
    <path d="m15.0249,131.11035V21.97949h19.55566v92.65137h48.19336v16.47949H15.0249Z" style="fill: #f1f5f9; stroke-width: 0px;"/>
    <path d="m141.07764,132.72168c-8.8877,0-16.65137-1.67188-23.29102-5.01758-6.64111-3.34375-11.79199-7.9834-15.4541-13.91602s-5.49316-12.78027-5.49316-20.54395V21.97949h19.55566v69.65332c0,4.54102,1.0127,8.59473,3.03955,12.1582,2.02539,3.56445,4.88184,6.36035,8.56934,8.38574,3.68604,2.02734,8.04395,3.04004,13.07373,3.04004,5.02832,0,9.38623-1.0127,13.07373-3.04004,3.68604-2.02539,6.54248-4.82129,8.56934-8.38574,2.02539-3.56348,3.03955-7.61719,3.03955-12.1582V21.97949h19.55566v71.26465c0,7.76367-1.84375,14.61133-5.52979,20.54395-3.6875,5.93262-8.83838,10.57227-15.4541,13.91602-6.61719,3.3457-14.36816,5.01758-23.25439,5.01758Z" style="fill: #f1f5f9; stroke-width: 0px;"/>
    <path d="m204.21533,131.11035V21.97949h40.7959c8.34961,0,15.38086,1.46484,21.09375,4.39453s10.03467,7.02002,12.96436,12.26807c2.92969,5.24951,4.39453,11.34131,4.39453,18.27393,0,6.93408-1.47754,12.96387-4.43164,18.09082-2.95508,5.12695-7.31299,9.08203-13.07373,11.86523-5.76221,2.7832-12.84277,4.1748-21.24023,4.1748h-29.15039v-16.18652h26.58691c4.93115,0,8.95947-.6958,12.08496-2.0874,3.12402-1.3916,5.44385-3.42969,6.95801-6.11572,1.5127-2.68457,2.27051-5.93262,2.27051-9.74121,0-3.90576-.75781-7.23828-2.27051-9.99756-1.51416-2.75781-3.84521-4.87061-6.99463-6.33545s-7.21436-2.19727-12.19482-2.19727h-18.2373v92.72461h-19.55566Zm61.37695,0l-26.51367-49.51172h21.38672l27.02686,49.51172h-21.8999Z" style="fill: #f1f5f9; stroke-width: 0px;"/>
    <path d="m291.74316,131.11035l38.08594-109.13086h24.8291l38.96484,109.13086h-21.45996l-19.40918-56.68945c-1.9043-5.85938-3.88184-12.48779-5.93262-19.88525s-4.32129-15.80762-6.81152-25.23193h4.10156c-2.44238,9.52148-4.65137,18.00635-6.62891,25.45166-1.97754,7.44678-3.84473,14.00195-5.60254,19.66553l-18.75,56.68945h-21.38672Zm22.19238-27.02637v-15.74707h57.49512v15.74707h-57.49512Z" style="fill: #f1f5f9; stroke-width: 0px;"/>
    <path d="m407.71191,27.98535c0-10.3418,8.4082-18.75,18.75-18.75h93.75c10.3418,0,18.75,8.4082,18.75,18.75v93.75c0,10.3418-8.4082,18.75-18.75,18.75h-93.75c-10.3418,0-18.75-8.4082-18.75-18.75V27.98535Zm18.75-4.6875c-2.57812,0-4.6875,2.10938-4.6875,4.6875v93.75c0,2.57812,2.10938,4.6875,4.6875,4.6875h93.75c2.57812,0,4.6875-2.10938,4.6875-4.6875V27.98535c0-2.57812-2.10938-4.6875-4.6875-4.6875h-93.75Zm37.11914,30.67383l-7.08984,5.39062c-3.07617,2.34375-7.5,1.75781-9.84375-1.31836s-1.75781-7.5,1.31836-9.84375l7.08984-5.39062c4.62891-3.51562,10.3125-5.39062,16.14258-5.30273l.99609.0293c13.62305.20508,24.55078,11.30859,24.55078,24.93164,0,6.88477-2.8418,13.47656-7.88086,18.19336l-18.83789,17.63672h24.4043c3.89648,0,7.03125,3.13477,7.03125,7.03125s-3.13477,7.03125-7.03125,7.03125h-42.1875c-2.87109,0-5.47852-1.75781-6.5332-4.45312s-.38086-5.74219,1.72852-7.70508l31.8457-29.85352c2.19727-2.05078,3.42773-4.92188,3.42773-7.93945,0-5.94727-4.77539-10.78125-10.72266-10.86914l-.99609-.0293c-2.66602-.0293-5.27344.82031-7.41211,2.43164v.0293Z" style="fill: #f1f5f9; stroke-width: 0px;"/>
  </g>
</svg>